HIERARCHY
ROOT Hips
{
    OFFSET   0.000000   0.000000   0.000000
    CHANNELS 6 Xposition Yposition Zposition Zrotation Xrotation Yrotation
    JOINT Chest
    {
        OFFSET   0.000000   8.007230   0.000000
        CHANNELS 3 Zrotation Xrotation Yrotation
        JOINT Chest2
        {
            OFFSET   0.000000  22.077100   0.000000
            CHANNELS 3 Zrotation Xrotation Yrotation
            JOINT Neck
            {
                OFFSET   0.000000  23.254700   0.000000
                CHANNELS 3 Zrotation Xrotation Yrotation
                JOINT Head
                {
                    OFFSET   0.000010  14.370000   1.956610
                    CHANNELS 3 Zrotation Xrotation Yrotation
                    End Site
                    {
                        OFFSET   0.000000  19.566000   0.000000
                    }
                }
            }
            JOINT LeftCollar
            {
                OFFSET   3.911900  19.017000  -0.467063
                CHANNELS 3 Zrotation Xrotation Yrotation
                JOINT LeftShoulder
                {
                    OFFSET  10.383700   0.000000   0.000000
                    CHANNELS 3 Zrotation Xrotation Yrotation
                    JOINT LeftElbow
                    {
                        OFFSET  26.662100   0.001671   0.000522
                        CHANNELS 3 Zrotation Xrotation Yrotation
                        JOINT LeftWrist
                        {
                            OFFSET  28.869000   0.000037  -0.000114
                            CHANNELS 3 Zrotation Xrotation Yrotation
                            JOINT LeftFinger0
                            {
                                OFFSET   2.044650  -2.323450   3.252850
                                CHANNELS 3 Zrotation Xrotation Yrotation
                                JOINT LeftFinger01
                                {
                                    OFFSET   3.088140   0.000000   0.000000
                                    CHANNELS 3 Zrotation Xrotation Yrotation
                                    JOINT LeftFinger02
                                    {
                                        OFFSET   2.639460   0.000000   0.000000
                                        CHANNELS 3 Zrotation Xrotation Yrotation
                                        End Site
                                        {
                                            OFFSET   2.582190   0.000000   0.000000
                                        }
                                    }
                                }
                            }
                            JOINT LeftFinger1
                            {
                                OFFSET   8.364480   0.000000   3.252850
                                CHANNELS 3 Zrotation Xrotation Yrotation
                                JOINT LeftFinger11
                                {
                                    OFFSET   4.646930   0.000000   0.000000
                                    CHANNELS 3 Zrotation Xrotation Yrotation
                                    JOINT LeftFinger12
                                    {
                                        OFFSET   2.323470   0.000000   0.000000
                                        CHANNELS 3 Zrotation Xrotation Yrotation
                                        End Site
                                        {
                                            OFFSET   2.273050   0.000000   0.000000
                                        }
                                    }
                                }
                            }
                            JOINT LeftFinger2
                            {
                                OFFSET   8.364490   0.000016   1.078090
                                CHANNELS 3 Zrotation Xrotation Yrotation
                                JOINT LeftFinger21
                                {
                                    OFFSET   5.111620   0.000000   0.000000
                                    CHANNELS 3 Zrotation Xrotation Yrotation
                                    JOINT LeftFinger22
                                    {
                                        OFFSET   2.788150   0.000013   0.000000
                                        CHANNELS 3 Zrotation Xrotation Yrotation
                                        End Site
                                        {
                                            OFFSET   2.727660   0.000000   0.000000
                                        }
                                    }
                                }
                            }
                            JOINT LeftFinger3
                            {
                                OFFSET   7.899780   0.000016  -1.078090
                                CHANNELS 3 Zrotation Xrotation Yrotation
                                JOINT LeftFinger31
                                {
                                    OFFSET   4.646930   0.000000   0.000000
                                    CHANNELS 3 Zrotation Xrotation Yrotation
                                    JOINT LeftFinger32
                                    {
                                        OFFSET   2.323470   0.000000   0.000000
                                        CHANNELS 3 Zrotation Xrotation Yrotation
                                        End Site
                                        {
                                            OFFSET   2.273050   0.000000   0.000000
                                        }
                                    }
                                }
                            }
                            JOINT LeftFinger4
                            {
                                OFFSET   7.435080   0.000000  -3.252850
                                CHANNELS 3 Zrotation Xrotation Yrotation
                                JOINT LeftFinger41
                                {
                                    OFFSET   3.717550   0.000000   0.000000
                                    CHANNELS 3 Zrotation Xrotation Yrotation
                                    JOINT LeftFinger42
                                    {
                                        OFFSET   1.858760   0.000000   0.000000
                                        CHANNELS 3 Zrotation Xrotation Yrotation
                                        End Site
                                        {
                                            OFFSET   1.818440   0.000000   0.000000
                                        }
                                    }
                                }
                            }
                        }
                    }
                }
            }
            JOINT RightCollar
            {
                OFFSET  -3.911900  19.017000  -0.467064
                CHANNELS 3 Zrotation Xrotation Yrotation
                JOINT RightShoulder
                {
                    OFFSET -10.383700   0.000000   0.000000
                    CHANNELS 3 Zrotation Xrotation Yrotation
                    JOINT RightElbow
                    {
                        OFFSET -26.662100   0.001633   0.000260
                        CHANNELS 3 Zrotation Xrotation Yrotation
                        JOINT RightWrist
                        {
                            OFFSET -28.869000  -0.000045  -0.000080
                            CHANNELS 3 Zrotation Xrotation Yrotation
                            JOINT RightFinger0
                            {
                                OFFSET  -2.044660  -2.323490   3.252850
                                CHANNELS 3 Zrotation Xrotation Yrotation
                                JOINT RightFinger01
                                {
                                    OFFSET  -3.088140   0.000000   0.000000
                                    CHANNELS 3 Zrotation Xrotation Yrotation
                                    JOINT RightFinger02
                                    {
                                        OFFSET  -2.639450   0.000000   0.000000
                                        CHANNELS 3 Zrotation Xrotation Yrotation
                                        End Site
                                        {
                                            OFFSET  -2.582190   0.000000   0.000000
                                        }
                                    }
                                }
                            }
                            JOINT RightFinger1
                            {
                                OFFSET  -8.364480   0.000000   3.252850
                                CHANNELS 3 Zrotation Xrotation Yrotation
                                JOINT RightFinger11
                                {
                                    OFFSET  -4.646920   0.000000   0.000000
                                    CHANNELS 3 Zrotation Xrotation Yrotation
                                    JOINT RightFinger12
                                    {
                                        OFFSET  -2.323470   0.000000   0.000000
                                        CHANNELS 3 Zrotation Xrotation Yrotation
                                        End Site
                                        {
                                            OFFSET  -2.273050   0.000000   0.000000
                                        }
                                    }
                                }
                            }
                            JOINT RightFinger2
                            {
                                OFFSET  -8.364480   0.000000   1.078090
                                CHANNELS 3 Zrotation Xrotation Yrotation
                                JOINT RightFinger21
                                {
                                    OFFSET  -5.111610   0.000000   0.000000
                                    CHANNELS 3 Zrotation Xrotation Yrotation
                                    JOINT RightFinger22
                                    {
                                        OFFSET  -2.788160   0.000000   0.000000
                                        CHANNELS 3 Zrotation Xrotation Yrotation
                                        End Site
                                        {
                                            OFFSET  -2.727660   0.000000   0.000000
                                        }
                                    }
                                }
                            }
                            JOINT RightFinger3
                            {
                                OFFSET  -7.899780   0.000000  -1.078090
                                CHANNELS 3 Zrotation Xrotation Yrotation
                                JOINT RightFinger31
                                {
                                    OFFSET  -4.646930   0.000000   0.000000
                                    CHANNELS 3 Zrotation Xrotation Yrotation
                                    JOINT RightFinger32
                                    {
                                        OFFSET  -2.323470   0.000000   0.000000
                                        CHANNELS 3 Zrotation Xrotation Yrotation
                                        End Site
                                        {
                                            OFFSET  -2.273050   0.000000   0.000000
                                        }
                                    }
                                }
                            }
                            JOINT RightFinger4
                            {
                                OFFSET  -7.435090   0.000000  -3.252850
                                CHANNELS 3 Zrotation Xrotation Yrotation
                                JOINT RightFinger41
                                {
                                    OFFSET  -3.717550   0.000000   0.000000
                                    CHANNELS 3 Zrotation Xrotation Yrotation
                                    JOINT RightFinger42
                                    {
                                        OFFSET  -1.858760   0.000000   0.000000
                                        CHANNELS 3 Zrotation Xrotation Yrotation
                                        End Site
                                        {
                                            OFFSET  -1.818440   0.000000   0.000000
                                        }
                                    }
                                }
                            }
                        }
                    }
                }
            }
        }
    }
    JOINT LeftHip
    {
        OFFSET   9.782990   0.000000   0.000000
        CHANNELS 3 Zrotation Xrotation Yrotation
        JOINT LeftKnee
        {
            OFFSET  -0.000063 -41.789100   0.001657
            CHANNELS 3 Zrotation Xrotation Yrotation
            JOINT LeftAnkle
            {
                OFFSET   0.000078 -41.133200  -0.000113
                CHANNELS 3 Zrotation Xrotation Yrotation
                JOINT LeftToe
                {
                    OFFSET   0.000000  -6.358970  14.674500
                    CHANNELS 3 Zrotation Xrotation Yrotation
                    End Site
                    {
                        OFFSET   0.000000   0.000000   3.913200
                    }
                }
            }
        }
    }
    JOINT RightHip
    {
        OFFSET  -9.782990   0.000000   0.000000
        CHANNELS 3 Zrotation Xrotation Yrotation
        JOINT RightKnee
        {
            OFFSET   0.000053 -41.789200   0.000277
            CHANNELS 3 Zrotation Xrotation Yrotation
            JOINT RightAnkle
            {
                OFFSET   0.000030 -41.133200  -0.000150
                CHANNELS 3 Zrotation Xrotation Yrotation
                JOINT RightToe
                {
                    OFFSET   0.000000  -6.358960  14.674500
                    CHANNELS 3 Zrotation Xrotation Yrotation
                    End Site
                    {
                        OFFSET   0.000000   0.000000   3.913200
                    }
                }
            }
        }
    }
}
MOTION
Frames: 5
Frame Time:   0.016667
  1.014880  89.559200   0.952333  -1.921680  -4.570250  -2.238560   0.243570   1.612540  -0.108033   0.490478   3.224620  -0.223061   0.510900   1.120450  -0.010372   0.840127   2.271410  -0.064712  -1.136710  -1.503680   2.230710 -80.999600  12.142800   2.465250  -1.149550  -5.356970 -12.204200  11.117700  -2.834480   1.661030  36.707900  24.358600 -54.974100 -29.712100   0.000000  -0.000000  -9.861640  -0.004966  -0.004836 -18.992500   3.268180  -9.405000 -15.759300   0.001897  -0.008501 -11.031500  -0.006535  -0.007626 -19.813800   0.709225  -1.967620 -19.826000   0.002154  -0.007106 -13.204100   0.001269  -0.011591 -20.948400   0.748762  -1.953190 -20.961200   0.000000  -0.002539 -13.960200  -0.001796  -0.002741 -22.778700   0.810630  -1.928300 -34.188500   0.002416  -0.000000 -22.769500   0.001294   0.001049   5.403990   0.841864   1.938990  76.190200   3.451210  -3.848730   0.726228  -9.218360   5.002540  -6.726200  -4.033650   4.862660 -39.829100  19.598600  56.458900  14.211600   0.001233  -0.006627   2.105780   0.004375  -0.000872  16.190000   3.399230  11.542300  13.527500  -0.000185   0.000506   9.469260  -0.003093   0.002415  22.711700   3.404340   8.074890  22.952100  -0.005601   0.002853  15.286100   0.000556   0.001469  17.120900   1.964710   6.350650  17.229900  -0.003307   0.003114  11.475100  -0.005839   0.002326  21.516900   2.203280   5.571160  32.436200  -0.001248   0.008116  21.602500   0.014871   0.005728   0.739652   7.477670   2.460400   0.739124   0.156689   6.371440  -0.343538  -4.113060   2.449340  -0.000000   0.000000   0.000000   1.493350   6.153480   0.723067  -0.353909   1.851460  -5.999120  -0.287107  -4.729490  -1.621350  -0.000000   0.000000   0.000000
  1.023830  89.559200   0.956430  -1.921570  -4.574760  -2.238570   0.243263   1.623140  -0.107747   0.489876   3.245830  -0.222525   0.523594   1.113450  -0.010364   0.861050   2.257720  -0.076782  -1.134880  -1.503840   2.241240 -80.999400  12.154400   2.460700  -1.152610  -5.367130 -12.213100  11.109500  -2.828330   1.661060  36.722900  24.399600 -55.000400 -29.707900   0.000000   0.000017  -9.857090  -0.004966  -0.004843 -19.013400   3.271750  -9.405060 -15.776700   0.001898  -0.008495 -11.043600  -0.006530  -0.007620 -19.857900   0.707115  -1.955920 -19.869900   0.002158  -0.007117 -13.233400   0.001274  -0.011603 -20.961900   0.748865  -1.942050 -20.974800   0.000029  -0.002544 -13.969300  -0.001796  -0.002760 -22.793100   0.810760  -1.917290 -34.210200   0.002424   0.000000 -22.784000   0.001285   0.001088   5.405960   0.830648   1.944440  76.192200   3.474870  -3.855960   0.746495  -9.229780   4.994590  -6.754410  -4.009250   4.865020 -39.815900  19.594700  56.475200  14.239600   0.001243  -0.006634   2.119790   0.004375  -0.000875  16.205300   3.411160  11.573200  13.541900  -0.000187   0.000504   9.479320  -0.003095   0.002418  22.733200   3.421620   8.104030  22.975700  -0.005603   0.002852  15.301800   0.000552   0.001468  17.135600   1.973170   6.372520  17.245400  -0.003299   0.003112  11.485500  -0.005843   0.002326  21.533400   2.202500   5.564220  32.460600  -0.001248   0.008115  21.618800   0.014868   0.005726   0.739011   7.485280   2.460480   0.737063   0.157305   6.371510  -0.343980  -4.116920   2.449500   0.000000   0.000000   0.000000   1.486960   6.162160   0.723073  -0.348775   1.852170  -5.994170  -0.287132  -4.730370  -1.621310  -0.000000   0.000000   0.000000
  1.038170  89.559200   0.963324  -1.921650  -4.583860  -2.238600   0.242647   1.641950  -0.106824   0.488655   3.283450  -0.220743   0.546776   1.100490  -0.010355   0.899198   2.231900  -0.094290  -1.130900  -1.504000   2.251770 -80.998000  12.178800   2.448590  -1.158330  -5.385740 -12.230600  11.094400  -2.816470   1.661080  36.759100  24.474500 -55.047500 -29.695900   0.000000   0.000060  -9.847930  -0.004966  -0.004865 -19.045600   3.278150  -9.405280 -15.803500   0.001900  -0.008475 -11.062400  -0.006518  -0.007604 -19.923100   0.705006  -1.944220 -19.935000   0.002170  -0.007146 -13.276700   0.001285  -0.011635 -20.978900   0.748967  -1.930910 -20.991700   0.000078  -0.002554 -13.980500  -0.001796  -0.002805 -22.807600   0.810890  -1.906280 -34.231900   0.002442  -0.000000 -22.798500   0.001277   0.001128   5.410310   0.810592   1.949880  76.195700   3.517240  -3.867260   0.777716  -9.241250   4.982920  -6.789440  -3.971330   4.870330 -39.794500  19.586800  56.499800  14.295800   0.001265  -0.006655   2.147930   0.004377  -0.000884  16.233500   3.427670  11.604100  13.567000  -0.000191   0.000498   9.496890  -0.003098   0.002420  22.769200   3.438890   8.133180  23.013700  -0.005609   0.002849  15.327100   0.000541   0.001463  17.163900   1.983620   6.394390  17.274700  -0.003276   0.003106  11.505000  -0.005853   0.002322  21.567000   2.201160   5.550030  32.510600  -0.001249   0.008112  21.652000   0.014862   0.005721   0.738167   7.497540   2.460590   0.733102   0.161614   6.371590  -0.345043  -4.126420   2.449670  -0.000000   0.000000  -0.000000   1.478040   6.177300   0.723052  -0.340830   1.852880  -5.989220  -0.287192  -4.731840  -1.621230   0.000000   0.000000   0.000000
  1.048600  89.559200   0.969084  -1.923320  -4.593510  -2.234140   0.242008   1.658680  -0.104867   0.487356   3.316900  -0.216880   0.569408   1.088040  -0.010388   0.936311   2.205860  -0.103971  -1.125430  -1.499670   2.251570 -80.994900  12.207200   2.428450  -1.165120  -5.406020 -12.249200  11.074900  -2.800520   1.661020  36.801500  24.562300 -55.081400 -29.674500   0.000000   0.000117  -9.836880  -0.004952  -0.004909 -19.063900   3.285790  -9.413310 -15.819200   0.001897  -0.008443 -11.073400  -0.006499  -0.007579 -19.956600   0.709476  -1.953960 -19.968700   0.002195  -0.007191 -13.299200   0.001298  -0.011686 -20.981200   0.748492  -1.940920 -20.993900   0.000119  -0.002562 -13.981900  -0.001763  -0.002868 -22.805700   0.810283  -1.916230 -34.229000   0.002469   0.000085 -22.796500   0.001296   0.001121   5.416040   0.791364   1.946680  76.202300   3.557810  -3.876220   0.797053  -9.236410   4.976100  -6.797160  -3.953060   4.879860 -39.780300  19.575600  56.513500  14.362100   0.001296  -0.006697   2.181070   0.004382  -0.000897  16.265400   3.432940  11.596100  13.594400  -0.000199   0.000487   9.516020  -0.003100   0.002418  22.800100   3.433180   8.110920  23.043300  -0.005619   0.002842  15.346800   0.000524   0.001455  17.196300   1.985690   6.374610  17.307000  -0.003237   0.003098  11.526500  -0.005868   0.002315  21.611400   2.200020   5.531300  32.576500  -0.001253   0.008107  21.695900   0.014856   0.005713   0.737985   7.503430   2.460640   0.727656   0.182506   6.371430  -0.346897  -4.144690   2.448330   0.000000   0.000000  -0.000000   1.474590   6.189460   0.720252  -0.334778   1.852840  -5.991990  -0.287432  -4.732480  -1.621120  -0.000000   0.000000  -0.000000
  1.058070  89.559100   0.974720  -1.927140  -4.606990  -2.226140   0.241097   1.678160  -0.102945   0.485520   3.355870  -0.213090   0.594799   1.072870  -0.010435   0.977982   2.174270  -0.108213  -1.119360  -1.495340   2.251360 -80.991100  12.244000   2.404870  -1.173790  -5.424560 -12.272900  11.062300  -2.788760   1.660960  36.859600  24.652300 -55.097200 -29.649500   0.000000   0.000200  -9.824760  -0.004927  -0.004960 -19.082300   3.290610  -9.421170 -15.834700   0.001894  -0.008401 -11.084300  -0.006475  -0.007545 -19.982900   0.713945  -1.963700 -19.995200   0.002226  -0.007248 -13.316800   0.001314  -0.011750 -20.983400   0.747735  -1.950930 -20.996200   0.000166  -0.002574 -13.983400  -0.001703  -0.002948 -22.803800   0.809303  -1.926170 -34.226100   0.002502   0.000230 -22.794500   0.001327   0.001115   5.422840   0.771127   1.943480  76.210300   3.600810  -3.881210   0.815025  -9.231520   4.973000  -6.800050  -3.925380   4.886300 -39.761400  19.565400  56.525200  14.437700   0.001337  -0.006743   2.218840   0.004388  -0.000920  16.289900   3.435340  11.588000  13.613400  -0.000210   0.000472   9.529340  -0.003103   0.002415  22.824700   3.427500   8.084920  23.067000  -0.005630   0.002833  15.362600   0.000503   0.001444  17.229300   1.986440   6.352790  17.340000  -0.003187   0.003087  11.548400  -0.005889   0.002304  21.654300   2.198890   5.513150  32.640400  -0.001259   0.008100  21.738500   0.014847   0.005702   0.738013   7.514880   2.460710   0.722425   0.199705   6.370240  -0.348767  -4.158240   2.445810  -0.000000   0.000000   0.000000   1.474120   6.205180   0.712325  -0.331424   1.852800  -5.994770  -0.287683  -4.734190  -1.621040   0.000000   0.000000   0.000000
